<svg width="284" height="31" viewBox="0 0 284 31" fill="none" xmlns="http://www.w3.org/2000/svg">
<path d="M19.6641 19.08L16.1441 9.46C15.9707 9.03333 15.7907 8.52667 15.6041 7.94C15.4174 7.35333 15.2307 6.72 15.0441 6.04C14.8707 6.72 14.6907 7.36 14.5041 7.96C14.3174 8.54667 14.1374 9.06 13.9641 9.5L10.4641 19.08H19.6641ZM29.1641 30H25.0041C24.5374 30 24.1574 29.8867 23.8641 29.66C23.5707 29.42 23.3507 29.1267 23.2041 28.78L21.0441 22.88H9.06406L6.90406 28.78C6.7974 29.0867 6.59073 29.3667 6.28406 29.62C5.9774 29.8733 5.5974 30 5.14406 30H0.944062L12.3241 1.08H17.8041L29.1641 30ZM35.9984 13.04C36.6384 11.8133 37.3984 10.8533 38.2784 10.16C39.1584 9.45333 40.1984 9.1 41.3984 9.1C42.3451 9.1 43.1051 9.30667 43.6784 9.72L43.3584 13.42C43.2918 13.66 43.1918 13.8333 43.0584 13.94C42.9384 14.0333 42.7718 14.08 42.5584 14.08C42.3584 14.08 42.0584 14.0467 41.6584 13.98C41.2718 13.9133 40.8918 13.88 40.5184 13.88C39.9718 13.88 39.4851 13.96 39.0584 14.12C38.6318 14.28 38.2451 14.5133 37.8984 14.82C37.5651 15.1133 37.2651 15.4733 36.9984 15.9C36.7451 16.3267 36.5051 16.8133 36.2784 17.36V30H31.3384V9.48H34.2384C34.7451 9.48 35.0984 9.57333 35.2984 9.76C35.4984 9.93333 35.6318 10.2533 35.6984 10.72L35.9984 13.04ZM60.3744 13.82C60.2277 14.0067 60.081 14.1533 59.9344 14.26C59.801 14.3667 59.601 14.42 59.3344 14.42C59.081 14.42 58.8344 14.3467 58.5944 14.2C58.3544 14.04 58.0677 13.8667 57.7344 13.68C57.401 13.48 57.001 13.3067 56.5344 13.16C56.081 13 55.5144 12.92 54.8344 12.92C53.9677 12.92 53.2077 13.08 52.5544 13.4C51.901 13.7067 51.3544 14.1533 50.9144 14.74C50.4877 15.3267 50.1677 16.04 49.9544 16.88C49.741 17.7067 49.6344 18.6467 49.6344 19.7C49.6344 20.7933 49.7477 21.7667 49.9744 22.62C50.2144 23.4733 50.5544 24.1933 50.9944 24.78C51.4344 25.3533 51.9677 25.7933 52.5944 26.1C53.221 26.3933 53.9277 26.54 54.7144 26.54C55.501 26.54 56.1344 26.4467 56.6144 26.26C57.1077 26.06 57.521 25.8467 57.8544 25.62C58.1877 25.38 58.4744 25.1667 58.7144 24.98C58.9677 24.78 59.2477 24.68 59.5544 24.68C59.9544 24.68 60.2544 24.8333 60.4544 25.14L61.8744 26.94C61.3277 27.58 60.7344 28.12 60.0944 28.56C59.4544 28.9867 58.7877 29.3333 58.0944 29.6C57.4144 29.8533 56.7077 30.0333 55.9744 30.14C55.2544 30.2467 54.5344 30.3 53.8144 30.3C52.5477 30.3 51.3544 30.0667 50.2344 29.6C49.1144 29.12 48.1344 28.4267 47.2944 27.52C46.4544 26.6133 45.7877 25.5067 45.2944 24.2C44.8144 22.88 44.5744 21.38 44.5744 19.7C44.5744 18.1933 44.7877 16.8 45.2144 15.52C45.6544 14.2267 46.2944 13.1133 47.1344 12.18C47.9744 11.2333 49.0144 10.4933 50.2544 9.96C51.4944 9.42667 52.921 9.16 54.5344 9.16C56.0677 9.16 57.4077 9.40667 58.5544 9.9C59.7144 10.3933 60.7544 11.1 61.6744 12.02L60.3744 13.82ZM85.6713 30H80.7313V13.18H71.2113V24.3C71.2113 24.94 71.3646 25.44 71.6713 25.8C71.9913 26.16 72.4246 26.34 72.9713 26.34C73.2779 26.34 73.5313 26.3067 73.7313 26.24C73.9446 26.16 74.1246 26.08 74.2713 26C74.4313 25.92 74.5713 25.8467 74.6913 25.78C74.8113 25.7 74.9313 25.66 75.0513 25.66C75.1979 25.66 75.3179 25.7 75.4113 25.78C75.5046 25.8467 75.6046 25.9533 75.7113 26.1L77.1913 28.5C76.4713 29.1 75.6446 29.5533 74.7113 29.86C73.7779 30.1667 72.8113 30.32 71.8113 30.32C70.0246 30.32 68.6513 29.82 67.6913 28.82C66.7446 27.8067 66.2713 26.4133 66.2713 24.64V13.18H64.1713C63.9046 13.18 63.6779 13.0933 63.4913 12.92C63.3046 12.7467 63.2113 12.4867 63.2113 12.14V10.18L66.5113 9.62L67.5513 4.04C67.6179 3.77333 67.7446 3.56666 67.9313 3.42C68.1179 3.27333 68.3579 3.2 68.6513 3.2H71.2113V9.66H85.6713V30ZM86.5313 3.42C86.5313 3.84667 86.4446 4.25333 86.2713 4.64C86.0979 5.01333 85.8646 5.34 85.5713 5.62C85.2913 5.9 84.9513 6.12667 84.5513 6.3C84.1646 6.46 83.7513 6.54 83.3113 6.54C82.8846 6.54 82.4846 6.46 82.1113 6.3C81.7379 6.12667 81.4113 5.9 81.1313 5.62C80.8513 5.34 80.6246 5.01333 80.4513 4.64C80.2913 4.25333 80.2113 3.84667 80.2113 3.42C80.2113 2.98 80.2913 2.57333 80.4513 2.2C80.6246 1.81333 80.8513 1.48 81.1313 1.2C81.4113 0.906666 81.7379 0.679999 82.1113 0.519998C82.4846 0.346665 82.8846 0.259998 83.3113 0.259998C83.7513 0.259998 84.1646 0.346665 84.5513 0.519998C84.9513 0.679999 85.2913 0.906666 85.5713 1.2C85.8646 1.48 86.0979 1.81333 86.2713 2.2C86.4446 2.57333 86.5313 2.98 86.5313 3.42ZM105.413 13.82C105.267 14.0067 105.12 14.1533 104.973 14.26C104.84 14.3667 104.64 14.42 104.373 14.42C104.12 14.42 103.873 14.3467 103.633 14.2C103.393 14.04 103.107 13.8667 102.773 13.68C102.44 13.48 102.04 13.3067 101.573 13.16C101.12 13 100.553 12.92 99.8734 12.92C99.0068 12.92 98.2468 13.08 97.5934 13.4C96.9401 13.7067 96.3934 14.1533 95.9534 14.74C95.5268 15.3267 95.2068 16.04 94.9934 16.88C94.7801 17.7067 94.6734 18.6467 94.6734 19.7C94.6734 20.7933 94.7868 21.7667 95.0134 22.62C95.2534 23.4733 95.5934 24.1933 96.0334 24.78C96.4734 25.3533 97.0068 25.7933 97.6334 26.1C98.2601 26.3933 98.9668 26.54 99.7534 26.54C100.54 26.54 101.173 26.4467 101.653 26.26C102.147 26.06 102.56 25.8467 102.893 25.62C103.227 25.38 103.513 25.1667 103.753 24.98C104.007 24.78 104.287 24.68 104.593 24.68C104.993 24.68 105.293 24.8333 105.493 25.14L106.913 26.94C106.367 27.58 105.773 28.12 105.133 28.56C104.493 28.9867 103.827 29.3333 103.133 29.6C102.453 29.8533 101.747 30.0333 101.013 30.14C100.293 30.2467 99.5734 30.3 98.8534 30.3C97.5868 30.3 96.3934 30.0667 95.2734 29.6C94.1534 29.12 93.1734 28.4267 92.3334 27.52C91.4934 26.6133 90.8268 25.5067 90.3334 24.2C89.8534 22.88 89.6134 21.38 89.6134 19.7C89.6134 18.1933 89.8268 16.8 90.2534 15.52C90.6934 14.2267 91.3334 13.1133 92.1734 12.18C93.0134 11.2333 94.0534 10.4933 95.2934 9.96C96.5334 9.42667 97.9601 9.16 99.5734 9.16C101.107 9.16 102.447 9.40667 103.593 9.9C104.753 10.3933 105.793 11.1 106.713 12.02L105.413 13.82ZM125.917 30H120.517V1.08H125.917V30ZM135.919 12C136.333 11.5867 136.766 11.2067 137.219 10.86C137.686 10.5 138.173 10.2 138.679 9.96C139.199 9.70667 139.753 9.51333 140.339 9.38C140.926 9.23333 141.566 9.16 142.259 9.16C143.379 9.16 144.373 9.35333 145.239 9.74C146.106 10.1133 146.826 10.6467 147.399 11.34C147.986 12.02 148.426 12.84 148.719 13.8C149.026 14.7467 149.179 15.7933 149.179 16.94V30H144.239V16.94C144.239 15.6867 143.953 14.72 143.379 14.04C142.806 13.3467 141.933 13 140.759 13C139.906 13 139.106 13.1933 138.359 13.58C137.613 13.9667 136.906 14.4933 136.239 15.16V30H131.299V9.48H134.319C134.959 9.48 135.379 9.78 135.579 10.38L135.919 12ZM154.966 30V13.2L153.186 12.92C152.799 12.84 152.486 12.7067 152.246 12.52C152.019 12.32 151.906 12.04 151.906 11.68V9.66H154.966V8.14C154.966 6.96666 155.139 5.91333 155.486 4.98C155.846 4.04667 156.353 3.25333 157.006 2.6C157.673 1.94667 158.479 1.44667 159.426 1.1C160.373 0.753332 161.439 0.579998 162.626 0.579998C163.573 0.579998 164.453 0.706666 165.266 0.96L165.166 3.44C165.153 3.62667 165.099 3.78 165.006 3.9C164.913 4.00667 164.786 4.09333 164.626 4.16C164.479 4.21333 164.306 4.25333 164.106 4.28C163.906 4.29333 163.693 4.3 163.466 4.3C162.879 4.3 162.353 4.36666 161.886 4.5C161.433 4.62 161.046 4.84 160.726 5.16C160.406 5.46666 160.159 5.88 159.986 6.4C159.826 6.90667 159.746 7.54 159.746 8.3V9.66H165.086V13.18H159.906V30H154.966ZM180.535 17.38C180.535 16.74 180.442 16.14 180.255 15.58C180.082 15.0067 179.815 14.5067 179.455 14.08C179.095 13.6533 178.635 13.32 178.075 13.08C177.528 12.8267 176.888 12.7 176.155 12.7C174.728 12.7 173.602 13.1067 172.775 13.92C171.962 14.7333 171.442 15.8867 171.215 17.38H180.535ZM171.115 20.36C171.195 21.4133 171.382 22.3267 171.675 23.1C171.968 23.86 172.355 24.4933 172.835 25C173.315 25.4933 173.882 25.8667 174.535 26.12C175.202 26.36 175.935 26.48 176.735 26.48C177.535 26.48 178.222 26.3867 178.795 26.2C179.382 26.0133 179.888 25.8067 180.315 25.58C180.755 25.3533 181.135 25.1467 181.455 24.96C181.788 24.7733 182.108 24.68 182.415 24.68C182.828 24.68 183.135 24.8333 183.335 25.14L184.755 26.94C184.208 27.58 183.595 28.12 182.915 28.56C182.235 28.9867 181.522 29.3333 180.775 29.6C180.042 29.8533 179.288 30.0333 178.515 30.14C177.755 30.2467 177.015 30.3 176.295 30.3C174.868 30.3 173.542 30.0667 172.315 29.6C171.088 29.12 170.022 28.42 169.115 27.5C168.208 26.5667 167.495 25.42 166.975 24.06C166.455 22.6867 166.195 21.1 166.195 19.3C166.195 17.9 166.422 16.5867 166.875 15.36C167.328 14.12 167.975 13.0467 168.815 12.14C169.668 11.22 170.702 10.4933 171.915 9.96C173.142 9.42667 174.522 9.16 176.055 9.16C177.348 9.16 178.542 9.36667 179.635 9.78C180.728 10.1933 181.668 10.8 182.455 11.6C183.242 12.3867 183.855 13.36 184.295 14.52C184.748 15.6667 184.975 16.98 184.975 18.46C184.975 19.2067 184.895 19.7133 184.735 19.98C184.575 20.2333 184.268 20.36 183.815 20.36H171.115ZM193.342 13.04C193.982 11.8133 194.742 10.8533 195.622 10.16C196.502 9.45333 197.542 9.1 198.742 9.1C199.689 9.1 200.449 9.30667 201.022 9.72L200.702 13.42C200.636 13.66 200.536 13.8333 200.402 13.94C200.282 14.0333 200.116 14.08 199.902 14.08C199.702 14.08 199.402 14.0467 199.002 13.98C198.616 13.9133 198.236 13.88 197.862 13.88C197.316 13.88 196.829 13.96 196.402 14.12C195.976 14.28 195.589 14.5133 195.242 14.82C194.909 15.1133 194.609 15.4733 194.342 15.9C194.089 16.3267 193.849 16.8133 193.622 17.36V30H188.682V9.48H191.582C192.089 9.48 192.442 9.57333 192.642 9.76C192.842 9.93333 192.976 10.2533 193.042 10.72L193.342 13.04ZM216.238 17.38C216.238 16.74 216.145 16.14 215.958 15.58C215.785 15.0067 215.518 14.5067 215.158 14.08C214.798 13.6533 214.338 13.32 213.778 13.08C213.231 12.8267 212.591 12.7 211.858 12.7C210.431 12.7 209.305 13.1067 208.478 13.92C207.665 14.7333 207.145 15.8867 206.918 17.38H216.238ZM206.818 20.36C206.898 21.4133 207.085 22.3267 207.378 23.1C207.671 23.86 208.058 24.4933 208.538 25C209.018 25.4933 209.585 25.8667 210.238 26.12C210.905 26.36 211.638 26.48 212.438 26.48C213.238 26.48 213.925 26.3867 214.498 26.2C215.085 26.0133 215.591 25.8067 216.018 25.58C216.458 25.3533 216.838 25.1467 217.158 24.96C217.491 24.7733 217.811 24.68 218.118 24.68C218.531 24.68 218.838 24.8333 219.038 25.14L220.458 26.94C219.911 27.58 219.298 28.12 218.618 28.56C217.938 28.9867 217.225 29.3333 216.478 29.6C215.745 29.8533 214.991 30.0333 214.218 30.14C213.458 30.2467 212.718 30.3 211.998 30.3C210.571 30.3 209.245 30.0667 208.018 29.6C206.791 29.12 205.725 28.42 204.818 27.5C203.911 26.5667 203.198 25.42 202.678 24.06C202.158 22.6867 201.898 21.1 201.898 19.3C201.898 17.9 202.125 16.5867 202.578 15.36C203.031 14.12 203.678 13.0467 204.518 12.14C205.371 11.22 206.405 10.4933 207.618 9.96C208.845 9.42667 210.225 9.16 211.758 9.16C213.051 9.16 214.245 9.36667 215.338 9.78C216.431 10.1933 217.371 10.8 218.158 11.6C218.945 12.3867 219.558 13.36 219.998 14.52C220.451 15.6667 220.678 16.98 220.678 18.46C220.678 19.2067 220.598 19.7133 220.438 19.98C220.278 20.2333 219.971 20.36 219.518 20.36H206.818ZM229.005 12C229.419 11.5867 229.852 11.2067 230.305 10.86C230.772 10.5 231.259 10.2 231.765 9.96C232.285 9.70667 232.839 9.51333 233.425 9.38C234.012 9.23333 234.652 9.16 235.345 9.16C236.465 9.16 237.459 9.35333 238.325 9.74C239.192 10.1133 239.912 10.6467 240.485 11.34C241.072 12.02 241.512 12.84 241.805 13.8C242.112 14.7467 242.265 15.7933 242.265 16.94V30H237.325V16.94C237.325 15.6867 237.039 14.72 236.465 14.04C235.892 13.3467 235.019 13 233.845 13C232.992 13 232.192 13.1933 231.445 13.58C230.699 13.9667 229.992 14.4933 229.325 15.16V30H224.385V9.48H227.405C228.045 9.48 228.465 9.78 228.665 10.38L229.005 12ZM261.663 13.82C261.517 14.0067 261.37 14.1533 261.223 14.26C261.09 14.3667 260.89 14.42 260.623 14.42C260.37 14.42 260.123 14.3467 259.883 14.2C259.643 14.04 259.357 13.8667 259.023 13.68C258.69 13.48 258.29 13.3067 257.823 13.16C257.37 13 256.803 12.92 256.123 12.92C255.257 12.92 254.497 13.08 253.843 13.4C253.19 13.7067 252.643 14.1533 252.203 14.74C251.777 15.3267 251.457 16.04 251.243 16.88C251.03 17.7067 250.923 18.6467 250.923 19.7C250.923 20.7933 251.037 21.7667 251.263 22.62C251.503 23.4733 251.843 24.1933 252.283 24.78C252.723 25.3533 253.257 25.7933 253.883 26.1C254.51 26.3933 255.217 26.54 256.003 26.54C256.79 26.54 257.423 26.4467 257.903 26.26C258.397 26.06 258.81 25.8467 259.143 25.62C259.477 25.38 259.763 25.1667 260.003 24.98C260.257 24.78 260.537 24.68 260.843 24.68C261.243 24.68 261.543 24.8333 261.743 25.14L263.163 26.94C262.617 27.58 262.023 28.12 261.383 28.56C260.743 28.9867 260.077 29.3333 259.383 29.6C258.703 29.8533 257.997 30.0333 257.263 30.14C256.543 30.2467 255.823 30.3 255.103 30.3C253.837 30.3 252.643 30.0667 251.523 29.6C250.403 29.12 249.423 28.4267 248.583 27.52C247.743 26.6133 247.077 25.5067 246.583 24.2C246.103 22.88 245.863 21.38 245.863 19.7C245.863 18.1933 246.077 16.8 246.503 15.52C246.943 14.2267 247.583 13.1133 248.423 12.18C249.263 11.2333 250.303 10.4933 251.543 9.96C252.783 9.42667 254.21 9.16 255.823 9.16C257.357 9.16 258.697 9.40667 259.843 9.9C261.003 10.3933 262.043 11.1 262.963 12.02L261.663 13.82ZM279.129 17.38C279.129 16.74 279.035 16.14 278.849 15.58C278.675 15.0067 278.409 14.5067 278.049 14.08C277.689 13.6533 277.229 13.32 276.669 13.08C276.122 12.8267 275.482 12.7 274.749 12.7C273.322 12.7 272.195 13.1067 271.369 13.92C270.555 14.7333 270.035 15.8867 269.809 17.38H279.129ZM269.709 20.36C269.789 21.4133 269.975 22.3267 270.269 23.1C270.562 23.86 270.949 24.4933 271.429 25C271.909 25.4933 272.475 25.8667 273.129 26.12C273.795 26.36 274.529 26.48 275.329 26.48C276.129 26.48 276.815 26.3867 277.389 26.2C277.975 26.0133 278.482 25.8067 278.909 25.58C279.349 25.3533 279.729 25.1467 280.049 24.96C280.382 24.7733 280.702 24.68 281.009 24.68C281.422 24.68 281.729 24.8333 281.929 25.14L283.349 26.94C282.802 27.58 282.189 28.12 281.509 28.56C280.829 28.9867 280.115 29.3333 279.369 29.6C278.635 29.8533 277.882 30.0333 277.109 30.14C276.349 30.2467 275.609 30.3 274.889 30.3C273.462 30.3 272.135 30.0667 270.909 29.6C269.682 29.12 268.615 28.42 267.709 27.5C266.802 26.5667 266.089 25.42 265.569 24.06C265.049 22.6867 264.789 21.1 264.789 19.3C264.789 17.9 265.015 16.5867 265.469 15.36C265.922 14.12 266.569 13.0467 267.409 12.14C268.262 11.22 269.295 10.4933 270.509 9.96C271.735 9.42667 273.115 9.16 274.649 9.16C275.942 9.16 277.135 9.36667 278.229 9.78C279.322 10.1933 280.262 10.8 281.049 11.6C281.835 12.3867 282.449 13.36 282.889 14.52C283.342 15.6667 283.569 16.98 283.569 18.46C283.569 19.2067 283.489 19.7133 283.329 19.98C283.169 20.2333 282.862 20.36 282.409 20.36H269.709Z" fill="#249EDC"/>
</svg>
